Coordinates
version=1
nRows=10
nColumns=23
inDegrees=yes

Units are S.I. units (second, meters, Newtons, ...)
If the header above contains a line with 'inDegrees', this indicates whether rotational values are in degrees (yes) or radians (no).

endheader
time	pelvis_tilt	pelvis_list	pelvis_rotation	pelvis_tx	pelvis_ty	pelvis_tz	hip_flexion_r	hip_adduction_r	hip_rotation_r	knee_angle_r	knee_angle_r_beta	ankle_angle_r	subtalar_angle_r	mtp_angle_r	hip_flexion_l	hip_adduction_l	hip_rotation_l	knee_angle_l	knee_angle_l_beta	ankle_angle_l	subtalar_angle_l	mtp_angle_l
     22.50000000	     -3.90438228	      4.54293259	      5.41957883	      2.21993013	      0.86444883	      1.00810967	     22.53129235	     -8.04362915	     -1.51212195	    113.06864514	      1.97342014	     -2.04651328	     -6.05813605	      0.00000000	     19.67252900	      9.00477197	     -0.11000616	     46.42901050	      0.81033910	     26.20402760	     -5.76016162	      0.00000000
     22.50666667	     -3.87728081	      4.40740793	      5.19137176	      2.21888936	      0.86649481	      1.00861793	     24.49703370	     -7.80293307	     -1.08614787	    112.79860661	      1.96870708	     -1.80805304	     -5.18931345	      0.00000000	     17.90697814	      8.60491768	     -0.19515032	     45.31765512	      0.79094229	     26.56308090	     -5.02442434	      0.00000000
     22.51333333	     -3.85888424	      4.24037561	      4.96522243	      2.21806145	      0.86909841	      1.00910664	     26.34902815	     -7.52431793	     -0.76900091	    112.17119028	      1.95775660	     -1.53762477	     -4.42930300	      0.00000000	     16.03162710	      8.18592161	     -0.25955945	     43.95592740	      0.76717566	     26.65929045	     -4.26463098	      0.00000000
     22.52000000	     -3.83486628	      4.03456059	      4.78000993	      2.21747335	      0.87229436	      1.00958832	     28.03891506	     -7.20311121	     -0.60510879	    111.17755727	      1.94041443	     -1.22114239	     -3.79594160	      0.00000000	     14.03639313	      7.73291755	     -0.30196668	     42.35437193	      0.73922324	     26.53958943	     -3.46688873	      0.00000000
     22.52666667	     -4.13139604	      3.63931816	      4.75735989	      2.21691228	      0.87559965	      1.00993357	     29.93828401	     -6.72755330	     -0.70033439	    109.85205593	      1.91728007	     -0.95004351	     -3.48879673	      0.00000000	     12.41729506	      7.19495909	     -0.03686607	     40.75846089	      0.71136934	     26.32344029	     -2.86674373	      0.00000000
     22.53333333	     -3.87227490	      3.45064588	      4.46918330	      2.21701151	      0.88012060	      1.01054038	     31.01106912	     -6.39730144	     -0.66472240	    108.15499343	      1.88766074	     -0.58938240	     -3.17037833	      0.00000000	      9.90340906	      6.69391189	     -0.30932271	     38.57789299	      0.67331125	     25.45640074	     -1.98916787	      0.00000000
     22.54000000	     -3.89435662	      3.07581404	      4.37565172	      2.21718537	      0.88469535	      1.01096406	     32.20655121	     -5.95887878	     -0.91882063	    106.14070342	      1.85250475	     -0.26221193	     -3.17978676	      0.00000000	      7.75073985	      6.09731308	     -0.28986117	     36.44823983	      0.63614179	     24.45564053	     -1.32062042	      0.00000000
     22.54666667	     -3.88745547	      2.68670530	      4.28766019	      2.21758569	      0.88970634	      1.01143336	     33.19310303	     -5.47841602	     -1.22736340	    103.82535269	      1.81209425	      0.05455693	     -3.42616554	      0.00000000	      5.50285202	      5.49849957	     -0.26127373	     34.12648721	      0.59561956	     23.07642658	     -0.76965444	      0.00000000
     22.55333333	     -3.94042751	      2.25994929	      4.22216386	      2.21821082	      0.89492648	      1.01189853	     34.06588183	     -5.00010207	     -1.63547556	    101.23224616	      1.76683600	      0.36824407	     -3.86188751	      0.00000000	      3.30932237	      4.86508909	     -0.26227208	     31.71251304	      0.55348777	     21.29410584	     -0.29206445	      0.00000000
     22.56000000	     -4.02608843	      1.81882632	      4.12902833	      2.21905443	      0.90032646	      1.01243008	     34.80880922	     -4.47345329	     -2.04773198	     98.37892222	      1.71703611	      0.65136562	     -4.51944799	      0.00000000	      1.14395078	      4.21317636	     -0.37808160	     29.21475261	      0.50989362	     19.18991758	      0.20288819	      0.00000000
